<svg width="32" height="32" viewBox="0 0 32 32" fill="none" xmlns="http://www.w3.org/2000/svg">
  <defs>
    <linearGradient id="grad1" x1="0%" y1="0%" x2="100%" y2="100%">
      <stop offset="0%" style="stop-color:#1e40af;stop-opacity:1" />
      <stop offset="50%" style="stop-color:#3b82f6;stop-opacity:1" />
      <stop offset="100%" style="stop-color:#6366f1;stop-opacity:1" />
    </linearGradient>
  </defs>
  
  <!-- 背景圆角矩形 -->
  <rect width="32" height="32" rx="6" fill="url(#grad1)"/>
  
  <!-- 主要图标：书本/记忆符号 -->
  <g fill="white">
    <!-- 书本外形 -->
    <path d="M8 6h16c1.1 0 2 .9 2 2v16c0 1.1-.9 2-2 2H8c-1.1 0-2-.9-2-2V8c0-1.1.9-2 2-2z" fill="none" stroke="white" stroke-width="1.5"/>
    
    <!-- 书页线条 -->
    <line x1="10" y1="10" x2="22" y2="10" stroke="white" stroke-width="1.2" stroke-linecap="round"/>
    <line x1="10" y1="13" x2="20" y2="13" stroke="white" stroke-width="1.2" stroke-linecap="round"/>
    <line x1="10" y1="16" x2="22" y2="16" stroke="white" stroke-width="1.2" stroke-linecap="round"/>
    <line x1="10" y1="19" x2="18" y2="19" stroke="white" stroke-width="1.2" stroke-linecap="round"/>
    
    <!-- 记忆/大脑符号 -->
    <circle cx="20" cy="20" r="3" fill="white" opacity="0.9"/>
    <circle cx="20" cy="20" r="1.5" fill="url(#grad1)"/>
  </g>
</svg>